<?xml version="1.0" encoding="UTF-8" standalone="no"?>
<svg
   id="Calque_1"
   version="1.1"
   viewBox="0 0 1050 700"
   sodipodi:docname="bg_last.svg"
   width="1050"
   height="700"
   inkscape:version="1.2.2 (732a01da63, 2022-12-09)"
   inkscape:export-filename="bg_last.png"
   inkscape:export-xdpi="256"
   inkscape:export-ydpi="256"
   xmlns:inkscape="http://www.inkscape.org/namespaces/inkscape"
   xmlns:sodipodi="http://sodipodi.sourceforge.net/DTD/sodipodi-0.dtd"
   xmlns="http://www.w3.org/2000/svg"
   xmlns:svg="http://www.w3.org/2000/svg">
  <sodipodi:namedview
     id="namedview999"
     pagecolor="#ffffff"
     bordercolor="#000000"
     borderopacity="0.25"
     inkscape:showpageshadow="2"
     inkscape:pageopacity="0.0"
     inkscape:pagecheckerboard="0"
     inkscape:deskcolor="#d1d1d1"
     showgrid="false"
     inkscape:zoom="0.97375463"
     inkscape:cx="904.2319"
     inkscape:cy="282.41201"
     inkscape:window-width="1920"
     inkscape:window-height="1137"
     inkscape:window-x="1912"
     inkscape:window-y="-8"
     inkscape:window-maximized="1"
     inkscape:current-layer="Calque_1" />
  <!-- Generator: Adobe Illustrator 29.4.0, SVG Export Plug-In . SVG Version: 2.1.0 Build 152)  -->
  <defs
     id="defs832">
    <style
       id="style830">
      .st0 {
        fill: #fff;
      }

      .st1 {
        fill-rule: evenodd;
      }

      .st1, .st2 {
        fill: #d3152c;
      }
    </style>
  </defs>
  <rect
     class="st0"
     width="1048.7319"
     height="698.57098"
     id="rect836"
     x="1.4120618"
     y="1.5404283"
     style="stroke-width:0.937587" />
  <rect
     class="st0"
     x="750.90997"
     y="112.45"
     width="255.14999"
     height="111.6"
     rx="5.1999998"
     ry="5.1999998"
     id="rect838" />
  <rect
     class="st2"
     x="878.40997"
     y="133.3"
     width="7.0500002"
     height="31.5"
     id="rect840" />
  <path
     class="st2"
     d="m 806.86,127.3 c -4.8,0 -9.6,1.65 -13.5,4.95 -8.85,7.5 -9.9,20.7 -2.4,29.4 4.2,4.8 10.05,7.35 15.9,7.35 5.85,0 9.6,-1.65 13.5,-4.95 8.7,-7.5 9.9,-20.7 2.4,-29.4 -4.2,-4.8 -10.05,-7.35 -15.9,-7.35 z"
     id="path842" />
  <path
     class="st2"
     d="m 853.96,149.65 v 15 h 7.05 v -15 c 0,-6.3 0,-9.45 8.7,-9.45 h 0.6 v -7.05 h -0.6 c -15.6,0 -15.6,10.65 -15.75,16.5 z"
     id="path844" />
  <polygon
     class="st2"
     points="1064.36,164.8 1064.36,139.75 1070.81,139.75 1070.81,133.3 1064.36,133.3 1064.36,126.4 1057.31,126.4 1057.31,133.3 1053.56,133.3 1053.56,139.75 1057.31,139.75 1057.31,164.8 "
     id="polygon846"
     transform="translate(-118)" />
  <path
     class="st2"
     d="m 919.81,136.75 c -2.7,-2.85 -6.3,-4.35 -10.65,-4.35 -8.7,0 -15.3,7.05 -15.3,16.5 0,9.45 6.45,16.65 15.3,16.65 8.85,0 7.95,-1.5 10.65,-4.35 v 3.6 h 7.05 v -31.5 h -7.05 v 3.6 0 z m -9.6,22.2 c -5.55,0 -9.3,-4.05 -9.3,-10.05 0,-6 0.9,-5.25 2.4,-7.2 1.65,-1.95 3.9,-2.85 6.75,-2.85 5.55,0 9.3,4.05 9.3,10.05 0,6 -3.6,10.05 -9.3,10.05 z"
     id="path848" />
  <path
     class="st2"
     d="m 973.06,132.4 c -9.45,0 -16.05,6.9 -16.05,16.65 0,9.75 6.75,16.65 16.05,16.65 9.3,0 12,-3.15 14.7,-8.55 l 0.3,-0.45 -6.15,-2.7 -0.3,0.45 c -1.65,3.15 -4.8,4.8 -8.55,4.8 -3.75,0 -7.8,-2.7 -8.7,-7.35 h 24 v -0.45 c 0.15,-0.75 0.3,-1.65 0.3,-2.4 0,-9.75 -6.45,-16.5 -15.6,-16.5 v 0 z m -8.55,13.2 c 1.05,-4.35 4.2,-6.9 8.55,-6.9 4.35,0 7.35,2.55 8.25,6.9 z"
     id="path850" />
  <path
     class="st2"
     d="m 772.66,188.5 c 1.2,0 2.1,0.6 2.4,1.5 l 1.5,-0.75 c -0.75,-1.35 -2.1,-2.25 -3.9,-2.25 -2.55,0 -4.5,1.95 -4.35,4.35 0,2.4 1.8,4.35 4.35,4.35 1.8,0 3.15,-0.9 3.9,-2.25 l -1.5,-0.75 c -0.45,0.9 -1.35,1.5 -2.4,1.5 -1.65,0 -2.85,-1.35 -2.85,-2.85 0,-1.5 1.05,-2.85 2.85,-2.85 z"
     id="path852" />
  <polygon
     class="st2"
     points="898.01,190.6 898.01,188.65 901.91,188.65 901.91,187.15 896.36,187.15 896.36,195.55 901.91,195.55 901.91,194.2 898.01,194.2 898.01,192.1 901.61,192.1 901.61,190.6 "
     id="polygon854"
     transform="translate(-118)" />
  <polygon
     class="st2"
     points="911.51,195.7 911.51,187.15 909.86,187.15 909.86,192.55 905.06,187.15 904.16,187.15 904.16,195.55 905.66,195.55 905.66,190.15 910.46,195.7 "
     id="polygon856"
     transform="translate(-118)" />
  <polygon
     class="st2"
     points="919.91,187.15 913.16,187.15 913.16,188.65 915.71,188.65 915.71,195.55 917.36,195.55 917.36,188.65 919.91,188.65 "
     id="polygon858"
     transform="translate(-118)" />
  <path
     class="st2"
     d="m 808.51,195.55 h 1.8 l -2.25,-3.6 c 1.2,-0.3 1.8,-1.2 1.8,-2.4 0,-1.2 -1.2,-2.4 -2.85,-2.4 h -3.45 v 8.4 h 1.5 v -3.45 h 1.2 l 2.1,3.45 z m -3.3,-6.9 h 1.95 c 0.75,0 1.2,0.3 1.2,1.05 0,0.75 -0.45,1.05 -1.2,1.05 h -1.95 z"
     id="path860" />
  <polygon
     class="st2"
     points="935.81,188.65 935.81,187.15 930.26,187.15 930.26,195.55 935.81,195.55 935.81,194.2 931.91,194.2 931.91,192.1 935.51,192.1 935.51,190.6 931.91,190.6 931.91,188.65 "
     id="polygon862"
     transform="translate(-118)" />
  <path
     class="st2"
     d="m 824.71,192.85 h 1.8 c 1.8,0 3,-1.2 3,-2.85 0,-1.65 -1.2,-2.7 -3,-2.7 h -3.45 v 8.4 h 1.5 v -2.85 z m 0,-4.2 h 1.65 c 1.05,0 1.65,0.45 1.65,1.35 0,0.9 -0.6,1.35 -1.65,1.35 h -1.65 z"
     id="path864" />
  <path
     class="st2"
     d="m 839.86,191.35 c 0,-2.4 -1.8,-4.35 -4.35,-4.35 -2.55,0 -4.5,1.95 -4.35,4.35 0,2.4 1.8,4.35 4.35,4.35 2.55,0 4.5,-1.95 4.35,-4.35 z m -7.2,0 c 0,-1.5 1.05,-2.85 2.85,-2.85 1.8,0 2.85,1.35 2.85,2.85 0,1.5 -1.05,2.85 -2.85,2.85 -1.8,0 -2.85,-1.35 -2.85,-2.85 z"
     id="path866" />
  <path
     class="st2"
     d="m 848.71,192.4 v -5.1 h -1.65 v 5.1 c 0,1.2 -0.75,1.95 -1.95,1.95 -1.2,0 -1.95,-0.75 -1.95,-1.95 v -5.1 h -1.5 v 5.1 c 0,1.95 1.35,3.45 3.45,3.45 2.1,0 3.6,-1.5 3.6,-3.45 z"
     id="path868" />
  <path
     class="st2"
     d="m 856.06,195.55 h 1.8 l -2.25,-3.6 c 1.2,-0.3 1.8,-1.2 1.8,-2.4 0,-1.2 -1.2,-2.4 -2.85,-2.4 h -3.45 v 8.4 h 1.65 v -3.45 h 1.2 z m -3.3,-6.9 h 1.95 c 0.75,0 1.2,0.3 1.2,1.05 0,0.75 -0.45,1.05 -1.2,1.05 h -1.95 z"
     id="path870" />
  <polygon
     class="st2"
     points="982.61,194.2 982.61,187.15 981.11,187.15 981.11,195.55 986.51,195.55 986.51,194.2 "
     id="polygon872"
     transform="translate(-118)" />
  <polygon
     class="st2"
     points="987.71,190.9 988.76,187.15 986.96,187.15 986.96,190.9 "
     id="polygon874"
     transform="translate(-118)" />
  <path
     class="st2"
     d="m 876.61,194.2 0.6,1.5 h 1.65 l -3.6,-8.4 h -0.9 l -3.6,8.4 h 1.65 l 0.6,-1.5 z m -1.8,-4.35 1.2,2.85 h -2.4 c 0,0 1.2,-2.85 1.2,-2.85 z"
     id="path876" />
  <polygon
     class="st2"
     points="998.51,187.15 998.51,195.55 1000.16,195.55 1000.16,190.15 1004.96,195.7 1005.86,195.7 1005.86,187.15 1004.21,187.15 1004.21,192.55 999.41,187.15 "
     id="polygon878"
     transform="translate(-118)" />
  <path
     class="st2"
     d="m 895.81,195.55 h 1.65 l -3.6,-8.4 h -0.9 l -3.6,8.4 h 1.65 l 0.6,-1.5 h 3.45 l 0.6,1.5 z m -3.45,-2.85 1.2,-2.85 1.2,2.85 z"
     id="path880" />
  <polygon
     class="st2"
     points="1018.76,194.2 1018.76,187.15 1017.11,187.15 1017.11,195.55 1022.66,195.55 1022.66,194.2 "
     id="polygon882"
     transform="translate(-118)" />
  <polygon
     class="st2"
     points="1025.66,195.55 1027.16,195.55 1027.16,193 1030.31,187.15 1028.51,187.15 1026.41,191.2 1024.31,187.15 1022.36,187.15 1025.66,193 "
     id="polygon884"
     transform="translate(-118)" />
  <path
     class="st2"
     d="m 916.06,194.35 c -0.75,0 -1.5,-0.45 -1.65,-1.2 l -1.35,0.75 c 0.3,1.2 1.65,1.95 3,1.95 1.35,0 3.15,-1.05 3.15,-2.7 0,-1.65 -0.9,-2.25 -2.4,-2.7 l -0.9,-0.3 c -0.6,0 -0.9,-0.45 -0.9,-0.9 0,-0.45 0.45,-0.75 0.9,-0.75 0.45,0 0.9,0.3 1.2,0.75 l 1.35,-0.75 c -0.3,-0.9 -1.35,-1.5 -2.55,-1.5 -1.2,0 -2.55,0.9 -2.55,2.25 0,1.35 0.75,1.95 1.95,2.25 l 0.9,0.3 c 0.75,0.3 1.2,0.6 1.2,1.2 0,0.6 -0.6,1.2 -1.65,1.2 v 0 z"
     id="path886" />
  <polygon
     class="st2"
     points="1044.86,188.65 1044.86,187.15 1039.31,187.15 1039.31,195.55 1044.86,195.55 1044.86,194.2 1040.81,194.2 1040.81,192.1 1044.56,192.1 1044.56,190.6 1040.81,190.6 1040.81,188.65 "
     id="polygon888"
     transform="translate(-118)" />
  <path
     class="st2"
     d="m 934.66,194.35 c -0.75,0 -1.5,-0.45 -1.65,-1.2 l -1.35,0.75 c 0.3,1.2 1.65,1.95 3,1.95 1.35,0 3.15,-1.05 3.15,-2.7 0,-1.65 -0.9,-2.25 -2.4,-2.7 l -0.9,-0.3 c -0.6,0 -0.9,-0.45 -0.9,-0.9 0,-0.45 0.45,-0.75 0.9,-0.75 0.45,0 0.9,0.3 1.2,0.75 l 1.35,-0.75 c -0.3,-0.9 -1.35,-1.5 -2.55,-1.5 -1.2,0 -2.55,0.9 -2.55,2.25 0,1.35 0.75,1.95 1.95,2.25 l 0.9,0.3 c 0.75,0.3 1.2,0.6 1.2,1.2 0,0.6 -0.6,1.2 -1.65,1.2 v 0 z"
     id="path890" />
  <path
     class="st2"
     d="m 941.26,192.85 h 1.8 c 1.65,0 3,-1.2 3,-2.85 0,-1.65 -1.2,-2.7 -3,-2.7 h -3.45 v 8.4 h 1.65 z m 0,-4.2 h 1.65 c 1.05,0 1.65,0.45 1.65,1.35 0,0.9 -0.6,1.35 -1.65,1.35 h -1.65 z"
     id="path892" />
  <path
     class="st2"
     d="m 948.76,194.2 h 3.6 l 0.6,1.5 h 1.65 l -3.6,-8.4 h -0.9 l -3.6,8.4 h 1.65 z m 1.8,-4.35 1.2,2.85 h -2.4 z"
     id="path894" />
  <polygon
     class="st2"
     points="1076.66,195.55 1076.66,188.65 1079.21,188.65 1079.21,187.15 1072.46,187.15 1072.46,188.65 1075.01,188.65 1075.01,195.55 "
     id="polygon896"
     transform="translate(-118)" />
  <rect
     class="st2"
     x="963.01001"
     y="187.14999"
     width="1.65"
     height="8.3999996"
     id="rect898" />
  <path
     class="st2"
     d="m 969.76,187.15 -3.6,8.4 h 1.65 l 0.6,-1.5 h 3.6 l 0.6,1.5 h 1.65 l -3.6,-8.4 z m -0.75,5.55 1.2,-2.85 1.2,2.85 z"
     id="path900" />
  <polygon
     class="st2"
     points="1093.91,187.15 1093.91,195.55 1099.31,195.55 1099.31,194.2 1095.41,194.2 1095.41,187.15 "
     id="polygon902"
     transform="translate(-118)" />
  <polygon
     class="st2"
     points="1102.61,190.6 1102.61,188.65 1106.66,188.65 1106.66,187.15 1101.11,187.15 1101.11,195.55 1106.66,195.55 1106.66,194.2 1102.61,194.2 1102.61,192.1 1106.36,192.1 1106.36,190.6 "
     id="polygon904"
     transform="translate(-118)" />
  <polygon
     class="st2"
     points="948.41,205 948.41,203.05 952.46,203.05 952.46,201.55 946.91,201.55 946.91,209.95 952.46,209.95 952.46,208.45 948.41,208.45 948.41,206.5 952.16,206.5 952.16,205 "
     id="polygon906"
     transform="translate(-118)" />
  <polygon
     class="st2"
     points="957.86,209.95 957.86,203.05 960.41,203.05 960.41,201.55 953.81,201.55 953.81,203.05 956.36,203.05 956.36,209.95 "
     id="polygon908"
     transform="translate(-118)" />
  <polygon
     class="st2"
     points="965.06,201.55 965.06,209.95 970.61,209.95 970.61,208.45 966.71,208.45 966.71,201.55 "
     id="polygon910"
     transform="translate(-118)" />
  <path
     class="st2"
     d="m 856.96,201.55 -3.6,8.4 h 1.65 l 0.6,-1.5 h 3.45 l 0.6,1.5 h 1.65 l -3.6,-8.4 h -0.9 z m -0.75,5.55 1.2,-2.85 1.2,2.85 z"
     id="path912" />
  <path
     class="st2"
     d="m 871.21,205.3 1.35,1.5 c -0.45,1.05 -1.35,1.8 -2.55,1.8 -1.2,0 -2.85,-1.35 -2.85,-2.85 0,-1.5 1.05,-2.85 2.85,-2.85 1.8,0 1.65,0.3 2.1,0.9 l 1.2,-1.05 c -0.75,-0.75 -1.95,-1.35 -3.3,-1.35 -2.55,0 -4.5,1.95 -4.35,4.35 0,2.4 1.8,4.35 4.35,4.35 2.55,0 4.35,-1.95 4.35,-4.35 v -0.45 z"
     id="path914" />
  <polygon
     class="st2"
     points="995.81,205 995.81,203.05 999.86,203.05 999.86,201.55 994.31,201.55 994.31,209.95 999.86,209.95 999.86,208.45 995.81,208.45 995.81,206.5 999.56,206.5 999.56,205 "
     id="polygon916"
     transform="translate(-118)" />
  <polygon
     class="st2"
     points="996.41,200.8 997.61,200.8 998.96,199 997.16,199 "
     id="polygon918"
     transform="translate(-118)" />
  <path
     class="st2"
     d="m 887.71,201.4 c -2.55,0 -4.5,1.95 -4.35,4.35 0,2.4 1.8,4.35 4.35,4.35 2.55,0 4.5,-1.95 4.35,-4.35 0,-2.4 -1.8,-4.35 -4.35,-4.35 z m 0,7.2 c -1.8,0 -2.85,-1.35 -2.85,-2.85 0,-1.5 1.05,-2.85 2.85,-2.85 1.8,0 2.85,1.35 2.85,2.85 0,1.5 -1.05,2.85 -2.85,2.85 z"
     id="path920" />
  <polygon
     class="st2"
     points="1015.61,209.95 1019.51,201.55 1017.71,201.55 1015.16,207.25 1012.76,201.55 1010.96,201.55 1014.71,209.95 "
     id="polygon922"
     transform="translate(-118)" />
  <rect
     class="st2"
     x="903.15997"
     y="201.55"
     width="1.65"
     height="8.3999996"
     id="rect924" />
  <path
     class="st2"
     d="m 910.36,204.7 -0.9,-0.3 c -0.6,0 -0.9,-0.45 -0.9,-0.9 0,-0.45 0.45,-0.75 0.9,-0.75 0.45,0 0.9,0.3 1.2,0.75 l 1.35,-0.75 c -0.3,-0.9 -1.35,-1.5 -2.55,-1.5 -1.2,0 -2.55,0.9 -2.55,2.25 0,1.35 0.75,1.95 1.95,2.25 l 0.9,0.3 c 0.75,0.3 1.2,0.6 1.2,1.2 0,0.6 -0.6,1.2 -1.65,1.2 -1.05,0 -1.5,-0.45 -1.65,-1.2 l -1.35,0.75 c 0.3,1.2 1.65,1.95 3,1.95 1.35,0 3.15,-1.05 3.15,-2.7 0,-1.65 -0.9,-2.25 -2.4,-2.7 v 0 z"
     id="path926" />
  <path
     class="st2"
     d="m 920.11,206.65 c 0,1.2 -0.75,1.95 -1.95,1.95 -1.2,0 -1.95,-0.75 -1.95,-1.95 v -5.1 h -1.65 v 5.1 c 0,1.95 1.35,3.45 3.45,3.45 2.1,0 3.45,-1.5 3.45,-3.45 v -5.1 h -1.65 v 5.1 z"
     id="path928" />
  <path
     class="st2"
     d="m 926.56,201.55 -3.6,8.4 h 1.65 l 0.6,-1.5 h 3.45 l 0.6,1.5 h 1.65 l -3.6,-8.4 h -0.9 z m -0.75,5.55 1.2,-2.85 1.2,2.85 z"
     id="path930" />
  <polygon
     class="st2"
     points="1050.71,201.55 1050.71,209.95 1056.11,209.95 1056.11,208.45 1052.21,208.45 1052.21,201.55 "
     id="polygon932"
     transform="translate(-118)" />
  <rect
     class="st2"
     x="939.90997"
     y="201.55"
     width="1.65"
     height="8.3999996"
     id="rect934" />
  <path
     class="st2"
     d="m 947.11,204.7 -0.9,-0.3 c -0.6,0 -0.9,-0.45 -0.9,-0.9 0,-0.45 0.45,-0.75 0.9,-0.75 0.45,0 0.9,0.3 1.2,0.75 l 1.35,-0.75 c -0.3,-0.9 -1.35,-1.5 -2.55,-1.5 -1.2,0 -2.55,0.9 -2.55,2.25 0,1.35 0.75,1.95 1.95,2.25 l 0.9,0.3 c 0.75,0.3 1.2,0.6 1.2,1.2 0,0.6 -0.6,1.2 -1.65,1.2 -1.05,0 -1.5,-0.45 -1.65,-1.2 l -1.35,0.75 c 0.3,1.2 1.65,1.95 3,1.95 1.35,0 3.15,-1.05 3.15,-2.7 0,-1.65 -0.9,-2.25 -2.4,-2.7 v 0 z"
     id="path936" />
  <path
     class="st2"
     d="m 954.01,201.55 -3.6,8.4 h 1.65 l 0.6,-1.5 h 3.45 l 0.6,1.5 h 1.65 l -3.6,-8.4 h -0.9 z m -0.75,5.55 1.2,-2.85 1.2,2.85 z"
     id="path938" />
  <polygon
     class="st2"
     points="1080.56,209.95 1080.56,203.05 1083.11,203.05 1083.11,201.55 1076.51,201.55 1076.51,203.05 1079.06,203.05 1079.06,209.95 "
     id="polygon940"
     transform="translate(-118)" />
  <rect
     class="st2"
     x="966.90997"
     y="201.55"
     width="1.65"
     height="8.3999996"
     id="rect942" />
  <path
     class="st2"
     d="m 974.86,201.4 c -2.55,0 -4.5,1.95 -4.35,4.35 0,2.4 1.8,4.35 4.35,4.35 2.55,0 4.5,-1.95 4.35,-4.35 0,-2.4 -1.8,-4.35 -4.35,-4.35 z m 0,7.2 c -1.8,0 -2.85,-1.35 -2.85,-2.85 0,-1.5 1.05,-2.85 2.85,-2.85 1.8,0 2.85,1.35 2.85,2.85 0,1.5 -1.05,2.85 -2.85,2.85 z"
     id="path944" />
  <polygon
     class="st2"
     points="1106.66,209.95 1106.66,201.55 1105.01,201.55 1105.01,206.95 1100.21,201.55 1099.31,201.55 1099.31,209.95 1100.96,209.95 1100.96,204.55 1105.76,209.95 "
     id="polygon946"
     transform="translate(-118)" />
  <g
     id="g974"
     transform="translate(-108)">
    <path
       class="st2"
       d="m 948.96,295.82 h 1.79 v 9.12 h -1.79 z m 4.42,1.73 c -0.24,-0.1 -0.52,-0.15 -0.83,-0.15 -0.57,0 -1.01,0.16 -1.32,0.47 -0.31,0.31 -0.47,0.75 -0.47,1.31 l -0.18,-1.76 c 0.28,-0.54 0.64,-0.97 1.09,-1.27 0.45,-0.3 0.94,-0.45 1.48,-0.45 0.42,0 0.79,0.06 1.13,0.18 0.34,0.12 0.63,0.3 0.88,0.53 l -1.17,1.58 c -0.16,-0.19 -0.36,-0.34 -0.6,-0.44 z"
       id="path948" />
    <path
       class="st2"
       d="m 956.64,292.17 h 1.79 v 1.79 h -1.79 z m 0,3.65 h 1.79 v 9.12 h -1.79 z"
       id="path950" />
    <path
       class="st2"
       d="m 961.55,304.38 c -0.56,-0.47 -0.83,-1.17 -0.83,-2.12 0,-0.95 0.25,-1.58 0.76,-2.03 0.51,-0.45 1.28,-0.68 2.31,-0.68 h 2.59 l 0.12,1.44 h -2.71 c -0.47,0 -0.82,0.1 -1.05,0.31 -0.23,0.21 -0.35,0.53 -0.35,0.95 0,0.46 0.15,0.81 0.46,1.03 0.31,0.22 0.78,0.33 1.4,0.33 0.69,0 1.2,-0.07 1.53,-0.22 0.33,-0.15 0.51,-0.38 0.51,-0.69 l 0.18,1.28 c -0.16,0.25 -0.35,0.45 -0.58,0.61 -0.23,0.16 -0.5,0.28 -0.8,0.36 -0.3,0.08 -0.65,0.12 -1.03,0.12 -1.12,0 -1.97,-0.23 -2.52,-0.7 z m 4.76,-5.22 c 0,-0.6 -0.16,-1.06 -0.48,-1.39 -0.32,-0.33 -0.77,-0.5 -1.36,-0.5 -0.36,0 -0.72,0.06 -1.07,0.17 -0.35,0.11 -0.66,0.27 -0.93,0.47 l -1.31,-0.9 c 0.35,-0.42 0.8,-0.74 1.37,-0.97 0.57,-0.23 1.19,-0.35 1.89,-0.35 0.76,0 1.4,0.13 1.94,0.4 0.54,0.27 0.95,0.65 1.23,1.16 0.28,0.51 0.42,1.12 0.42,1.83 v 5.86 h -1.71 v -5.78 z"
       id="path952" />
    <path
       class="st2"
       d="m 970.03,295.82 h 4.11 v 1.62 h -4.11 z m 1.46,8.56 c -0.34,-0.41 -0.51,-1.01 -0.51,-1.81 v -9.4 h 1.79 v 9.42 c 0,0.22 0.04,0.39 0.13,0.51 0.09,0.12 0.22,0.18 0.39,0.18 h 0.86 v 1.71 h -1.04 c -0.74,0 -1.28,-0.2 -1.62,-0.61 z"
       id="path954" />
    <path
       class="st2"
       d="m 978.18,304.6 c -0.6,-0.32 -1.05,-0.78 -1.37,-1.39 -0.31,-0.61 -0.47,-1.35 -0.47,-2.22 v -1.03 c 0,-0.9 0.15,-1.67 0.45,-2.31 0.3,-0.64 0.74,-1.12 1.31,-1.46 0.57,-0.34 1.27,-0.5 2.07,-0.5 0.76,0 1.41,0.19 1.95,0.57 0.54,0.38 0.95,0.93 1.24,1.65 0.28,0.72 0.43,1.58 0.43,2.59 v 0.6 h -6.15 v -1.44 h 4.45 c -0.05,-0.74 -0.25,-1.32 -0.58,-1.74 -0.33,-0.42 -0.77,-0.62 -1.33,-0.62 -0.68,0 -1.21,0.22 -1.58,0.67 -0.37,0.45 -0.56,1.08 -0.56,1.89 v 1.16 c 0,0.76 0.2,1.34 0.6,1.74 0.4,0.4 0.96,0.61 1.7,0.61 0.36,0 0.72,-0.07 1.08,-0.22 0.36,-0.15 0.68,-0.35 0.96,-0.62 l 1.18,1.18 c -0.45,0.43 -0.96,0.77 -1.52,1.01 -0.56,0.24 -1.13,0.36 -1.7,0.36 -0.84,0 -1.56,-0.16 -2.16,-0.47 z"
       id="path956" />
    <path
       class="st2"
       d="m 985.6,303.07 h 1.88 v 1.88 h -1.88 z"
       id="path958" />
    <path
       class="st2"
       d="m 991.18,304.61 c -0.59,-0.31 -1.04,-0.76 -1.35,-1.35 -0.31,-0.59 -0.47,-1.31 -0.47,-2.14 v -1.5 c 0,-0.83 0.16,-1.53 0.47,-2.12 0.31,-0.59 0.76,-1.03 1.35,-1.34 0.59,-0.31 1.3,-0.46 2.13,-0.46 0.47,0 0.92,0.06 1.34,0.17 0.42,0.11 0.79,0.28 1.13,0.5 0.34,0.22 0.61,0.48 0.83,0.79 l -1.29,1.16 c -0.26,-0.29 -0.56,-0.52 -0.91,-0.68 -0.35,-0.16 -0.71,-0.24 -1.08,-0.24 -0.69,0 -1.23,0.19 -1.61,0.58 -0.38,0.39 -0.57,0.93 -0.57,1.63 v 1.5 c 0,0.72 0.19,1.28 0.57,1.67 0.38,0.39 0.92,0.59 1.61,0.59 0.38,0 0.74,-0.08 1.09,-0.25 0.35,-0.17 0.64,-0.41 0.9,-0.72 l 1.29,1.25 c -0.23,0.3 -0.51,0.56 -0.84,0.78 -0.33,0.22 -0.71,0.38 -1.13,0.49 -0.42,0.11 -0.86,0.17 -1.33,0.17 -0.83,0 -1.54,-0.16 -2.13,-0.47 z"
       id="path960" />
    <path
       class="st2"
       d="m 998.6,295.82 h 1.79 v 9.12 h -1.79 z m 5.54,3.6 c 0,-0.64 -0.17,-1.14 -0.5,-1.49 -0.33,-0.35 -0.8,-0.53 -1.41,-0.53 -0.61,0 -1.04,0.16 -1.36,0.47 -0.32,0.31 -0.48,0.75 -0.48,1.31 l -0.18,-1.76 c 0.28,-0.55 0.65,-0.98 1.1,-1.27 0.45,-0.29 0.96,-0.45 1.51,-0.45 0.99,0 1.76,0.32 2.3,0.97 0.54,0.65 0.81,1.56 0.81,2.75 v 5.54 h -1.79 v -5.53 z"
       id="path962" />
    <path
       class="st2"
       d="m 1008.65,295.82 h 1.79 v 9.12 h -1.79 z m 4.42,1.73 c -0.24,-0.1 -0.52,-0.15 -0.83,-0.15 -0.57,0 -1.01,0.16 -1.32,0.47 -0.31,0.31 -0.47,0.75 -0.47,1.31 l -0.18,-1.76 c 0.28,-0.54 0.64,-0.97 1.09,-1.27 0.45,-0.3 0.94,-0.45 1.48,-0.45 0.42,0 0.79,0.06 1.13,0.18 0.34,0.12 0.63,0.3 0.88,0.53 l -1.17,1.58 c -0.16,-0.19 -0.36,-0.34 -0.6,-0.44 z"
       id="path964" />
    <path
       class="st2"
       d="m 1018.04,304.92 c -0.47,-0.11 -0.91,-0.26 -1.32,-0.47 -0.41,-0.21 -0.79,-0.47 -1.13,-0.79 l 1.06,-1.31 c 0.49,0.38 0.98,0.66 1.47,0.84 0.49,0.18 0.97,0.28 1.44,0.28 0.71,0 1.24,-0.11 1.59,-0.33 0.35,-0.22 0.53,-0.55 0.53,-0.99 0,-0.29 -0.1,-0.51 -0.29,-0.66 -0.19,-0.15 -0.43,-0.24 -0.72,-0.29 -0.29,-0.05 -0.69,-0.1 -1.21,-0.14 -0.05,0 -0.1,0 -0.15,0 -0.05,0 -0.1,0 -0.15,-0.01 -0.02,0 -0.05,0 -0.07,0 -0.02,0 -0.05,0 -0.07,0 -0.59,-0.05 -1.09,-0.13 -1.5,-0.26 -0.41,-0.13 -0.75,-0.36 -1.02,-0.71 -0.27,-0.35 -0.41,-0.84 -0.41,-1.49 0,-0.65 0.13,-1.18 0.4,-1.61 0.27,-0.43 0.66,-0.75 1.18,-0.96 0.52,-0.21 1.17,-0.32 1.96,-0.32 0.47,0 0.93,0.04 1.36,0.13 0.43,0.09 0.84,0.22 1.24,0.39 0.4,0.17 0.77,0.39 1.13,0.65 l -1.08,1.31 c -0.46,-0.29 -0.91,-0.51 -1.35,-0.66 -0.44,-0.15 -0.88,-0.22 -1.3,-0.22 -0.61,0 -1.07,0.1 -1.37,0.31 -0.3,0.21 -0.46,0.52 -0.46,0.94 0,0.25 0.09,0.43 0.26,0.55 0.17,0.12 0.39,0.21 0.65,0.25 0.26,0.04 0.64,0.08 1.12,0.11 0.04,0 0.07,0 0.11,0 0.04,0 0.08,0 0.12,0 h 0.05 c 0,0 0.04,0 0.05,0 0.64,0.04 1.18,0.13 1.63,0.25 0.45,0.13 0.82,0.38 1.13,0.76 0.31,0.38 0.46,0.93 0.46,1.65 0,0.66 -0.14,1.2 -0.42,1.63 -0.28,0.43 -0.71,0.75 -1.27,0.97 -0.57,0.22 -1.28,0.33 -2.13,0.33 -0.54,0 -1.04,-0.05 -1.52,-0.16 z"
       id="path966" />
    <path
       class="st2"
       d="m 1025.36,303.07 h 1.88 v 1.88 h -1.88 z"
       id="path968" />
    <path
       class="st2"
       d="m 1029.04,295.82 h 4.56 v 1.53 h -4.56 z m 0.97,-1.24 c 0,-0.81 0.19,-1.41 0.56,-1.81 0.37,-0.4 0.94,-0.6 1.72,-0.6 h 1.32 v 1.71 h -1.28 c -0.17,0 -0.3,0.06 -0.39,0.19 -0.09,0.13 -0.13,0.3 -0.13,0.5 v 10.38 h -1.79 v -10.36 z"
       id="path970" />
    <path
       class="st2"
       d="m 1035.1,295.82 h 1.79 v 9.12 h -1.79 z m 4.42,1.73 c -0.24,-0.1 -0.52,-0.15 -0.83,-0.15 -0.57,0 -1.01,0.16 -1.32,0.47 -0.31,0.31 -0.47,0.75 -0.47,1.31 l -0.18,-1.76 c 0.28,-0.54 0.64,-0.97 1.09,-1.27 0.45,-0.3 0.94,-0.45 1.48,-0.45 0.42,0 0.79,0.06 1.13,0.18 0.34,0.12 0.63,0.3 0.88,0.53 l -1.17,1.58 c -0.16,-0.19 -0.36,-0.34 -0.6,-0.44 z"
       id="path972" />
  </g>
  <path
     class="st2"
     d="m 821.59,290.51 c -2.8,-3.3 -6.79,-5 -10.81,-5 -3.24,0 -6.5,1.11 -9.17,3.37 -5.97,5.07 -6.7,14.01 -1.63,19.97 2.8,3.3 6.79,5 10.81,5 3.24,0 6.5,-1.11 9.17,-3.37 5.97,-5.07 6.69,-14.01 1.63,-19.98 v 0 z m -6.88,5.86 h -0.67 c -3.28,0 -3.28,0.91 -3.28,3.62 v 6.92 h -3.9 v -6.92 c 0,-2.44 0,-7.52 7.18,-7.52 h 0.67 z"
     id="path976" />
  <path
     class="st1"
     d="m 810.78,324.47 c -7.83,0 -14.17,6.34 -14.17,14.17 0,6.27 4.06,11.57 9.69,13.45 0.71,0.12 0.97,-0.3 0.97,-0.67 0,-0.34 -0.02,-1.45 -0.02,-2.64 -3.56,0.66 -4.48,-0.87 -4.77,-1.67 -0.16,-0.41 -0.85,-1.67 -1.45,-2 -0.5,-0.27 -1.2,-0.92 -0.02,-0.94 1.12,-0.02 1.91,1.03 2.18,1.45 1.28,2.14 3.31,1.54 4.13,1.17 0.12,-0.92 0.5,-1.54 0.9,-1.9 -3.15,-0.35 -6.45,-1.58 -6.45,-7 0,-1.54 0.55,-2.82 1.45,-3.81 -0.14,-0.35 -0.64,-1.81 0.14,-3.76 0,0 1.19,-0.37 3.9,1.45 1.13,-0.32 2.34,-0.48 3.54,-0.48 1.2,0 2.41,0.16 3.54,0.48 2.71,-1.84 3.9,-1.45 3.9,-1.45 0.78,1.95 0.28,3.4 0.14,3.76 0.9,0.99 1.45,2.25 1.45,3.81 0,5.44 -3.31,6.64 -6.47,7 0.51,0.44 0.96,1.29 0.96,2.62 0,1.9 -0.02,3.42 -0.02,3.9 0,0.37 0.27,0.81 0.97,0.67 5.6,-1.88 9.66,-7.19 9.66,-13.45 0,-7.83 -6.34,-14.17 -14.17,-14.17 z"
     id="path978" />
  <g
     id="g996"
     transform="translate(-108)">
    <path
       class="st2"
       d="m 948.96,334.43 h 1.79 v 9.12 h -1.79 z m 4.42,1.72 c -0.24,-0.1 -0.52,-0.15 -0.83,-0.15 -0.57,0 -1.01,0.16 -1.32,0.47 -0.31,0.31 -0.47,0.75 -0.47,1.31 l -0.18,-1.76 c 0.28,-0.54 0.64,-0.97 1.09,-1.27 0.45,-0.3 0.94,-0.45 1.48,-0.45 0.42,0 0.79,0.06 1.13,0.18 0.34,0.12 0.63,0.3 0.88,0.53 l -1.17,1.58 c -0.16,-0.19 -0.36,-0.34 -0.6,-0.44 z"
       id="path980" />
    <path
       class="st2"
       d="m 956.64,330.77 h 1.79 v 1.79 h -1.79 z m 0,3.66 h 1.79 v 9.12 h -1.79 z"
       id="path982" />
    <path
       class="st2"
       d="m 961.55,342.98 c -0.56,-0.47 -0.83,-1.17 -0.83,-2.12 0,-0.95 0.25,-1.58 0.76,-2.03 0.51,-0.45 1.28,-0.68 2.31,-0.68 h 2.59 l 0.12,1.44 h -2.71 c -0.47,0 -0.82,0.1 -1.05,0.31 -0.23,0.21 -0.35,0.53 -0.35,0.95 0,0.46 0.15,0.81 0.46,1.03 0.31,0.22 0.78,0.33 1.4,0.33 0.69,0 1.2,-0.07 1.53,-0.22 0.33,-0.15 0.51,-0.38 0.51,-0.69 l 0.18,1.28 c -0.16,0.25 -0.35,0.45 -0.58,0.61 -0.23,0.16 -0.5,0.28 -0.8,0.36 -0.3,0.08 -0.65,0.12 -1.03,0.12 -1.12,0 -1.97,-0.23 -2.52,-0.7 z m 4.76,-5.21 c 0,-0.6 -0.16,-1.06 -0.48,-1.39 -0.32,-0.33 -0.77,-0.5 -1.36,-0.5 -0.36,0 -0.72,0.06 -1.07,0.17 -0.35,0.11 -0.66,0.27 -0.93,0.47 l -1.31,-0.9 c 0.35,-0.42 0.8,-0.74 1.37,-0.97 0.57,-0.23 1.19,-0.35 1.89,-0.35 0.76,0 1.4,0.13 1.94,0.4 0.54,0.27 0.95,0.65 1.23,1.16 0.28,0.51 0.42,1.12 0.42,1.83 v 5.86 h -1.71 v -5.78 z"
       id="path984" />
    <path
       class="st2"
       d="m 970.03,334.43 h 4.11 v 1.62 h -4.11 z m 1.46,8.55 c -0.34,-0.41 -0.51,-1.01 -0.51,-1.81 v -9.4 h 1.79 v 9.42 c 0,0.22 0.04,0.39 0.13,0.51 0.09,0.12 0.22,0.18 0.39,0.18 h 0.86 v 1.71 h -1.04 c -0.74,0 -1.28,-0.2 -1.62,-0.61 z"
       id="path986" />
    <path
       class="st2"
       d="m 978.18,343.21 c -0.6,-0.32 -1.05,-0.78 -1.37,-1.39 -0.31,-0.61 -0.47,-1.35 -0.47,-2.22 v -1.03 c 0,-0.9 0.15,-1.67 0.45,-2.31 0.3,-0.64 0.74,-1.12 1.31,-1.46 0.57,-0.34 1.27,-0.5 2.07,-0.5 0.76,0 1.41,0.19 1.95,0.57 0.54,0.38 0.95,0.93 1.24,1.65 0.28,0.72 0.43,1.58 0.43,2.59 v 0.6 h -6.15 v -1.44 h 4.45 c -0.05,-0.74 -0.25,-1.32 -0.58,-1.74 -0.33,-0.42 -0.77,-0.62 -1.33,-0.62 -0.68,0 -1.21,0.22 -1.58,0.67 -0.37,0.45 -0.56,1.08 -0.56,1.89 v 1.16 c 0,0.76 0.2,1.34 0.6,1.74 0.4,0.4 0.96,0.61 1.7,0.61 0.36,0 0.72,-0.07 1.08,-0.22 0.36,-0.15 0.68,-0.35 0.96,-0.62 l 1.18,1.18 c -0.45,0.43 -0.96,0.77 -1.52,1.01 -0.56,0.24 -1.13,0.36 -1.7,0.36 -0.84,0 -1.56,-0.16 -2.16,-0.47 z"
       id="path988" />
    <path
       class="st2"
       d="m 988.05,341.19 c 0,0.22 0.05,0.39 0.14,0.51 0.1,0.12 0.23,0.18 0.41,0.18 h 0.84 v 1.71 h -1.05 c -0.68,0 -1.21,-0.21 -1.58,-0.63 -0.37,-0.42 -0.56,-1.02 -0.56,-1.78 v -10.41 h 1.79 v 10.42 z"
       id="path990" />
    <path
       class="st2"
       d="m 991.78,342.98 c -0.56,-0.47 -0.83,-1.17 -0.83,-2.12 0,-0.95 0.25,-1.58 0.76,-2.03 0.51,-0.45 1.28,-0.68 2.31,-0.68 h 2.59 l 0.12,1.44 h -2.71 c -0.47,0 -0.82,0.1 -1.05,0.31 -0.23,0.21 -0.35,0.53 -0.35,0.95 0,0.46 0.15,0.81 0.46,1.03 0.31,0.22 0.78,0.33 1.4,0.33 0.69,0 1.2,-0.07 1.53,-0.22 0.33,-0.15 0.51,-0.38 0.51,-0.69 l 0.18,1.28 c -0.16,0.25 -0.35,0.45 -0.58,0.61 -0.23,0.16 -0.5,0.28 -0.8,0.36 -0.3,0.08 -0.65,0.12 -1.03,0.12 -1.12,0 -1.97,-0.23 -2.52,-0.7 z m 4.75,-5.21 c 0,-0.6 -0.16,-1.06 -0.48,-1.39 -0.32,-0.33 -0.77,-0.5 -1.36,-0.5 -0.36,0 -0.72,0.06 -1.07,0.17 -0.35,0.11 -0.66,0.27 -0.93,0.47 l -1.31,-0.9 c 0.35,-0.42 0.8,-0.74 1.37,-0.97 0.57,-0.23 1.19,-0.35 1.89,-0.35 0.76,0 1.4,0.13 1.94,0.4 0.54,0.27 0.95,0.65 1.23,1.16 0.28,0.51 0.42,1.12 0.42,1.83 v 5.86 h -1.71 v -5.78 z"
       id="path992" />
    <path
       class="st2"
       d="m 1000.96,330.77 h 1.79 v 12.78 h -1.79 z m 2.6,12.5 c -0.42,-0.27 -0.73,-0.66 -0.93,-1.16 l 0.12,-1.91 c 0,0.39 0.07,0.73 0.21,1 0.14,0.27 0.34,0.49 0.61,0.63 0.27,0.15 0.59,0.22 0.97,0.22 0.59,0 1.05,-0.18 1.38,-0.54 0.33,-0.36 0.49,-0.87 0.49,-1.52 v -1.98 c 0,-0.67 -0.16,-1.19 -0.49,-1.56 -0.32,-0.37 -0.78,-0.55 -1.38,-0.55 -0.38,0 -0.71,0.07 -0.97,0.21 -0.27,0.14 -0.47,0.35 -0.61,0.62 -0.14,0.27 -0.21,0.6 -0.21,0.98 l -0.18,-1.76 c 0.28,-0.53 0.64,-0.94 1.08,-1.23 0.44,-0.29 0.94,-0.44 1.49,-0.44 0.64,0 1.2,0.15 1.66,0.44 0.46,0.29 0.81,0.71 1.05,1.27 0.24,0.56 0.36,1.23 0.36,2.01 v 1.99 c 0,0.77 -0.12,1.44 -0.37,1.99 -0.25,0.55 -0.61,0.97 -1.08,1.26 -0.47,0.29 -1.04,0.44 -1.71,0.44 -0.57,0 -1.06,-0.14 -1.49,-0.41 z"
       id="path994" />
  </g>
</svg>
